<svg width="34" height="43" viewBox="0 0 34 43" fill="none" xmlns="http://www.w3.org/2000/svg">
<path d="M16.8282 12.1056C20.1711 12.1056 22.881 9.3957 22.881 6.05282C22.881 2.70994 20.1711 0 16.8282 0C13.4853 0 10.7754 2.70994 10.7754 6.05282C10.7754 9.3957 13.4853 12.1056 16.8282 12.1056Z" fill="#7551FD"/>
<path d="M24.0247 13.0425C23.9292 12.9776 23.7372 12.8529 23.7372 12.8529C22.19 15.001 19.6675 16.4021 16.8238 16.4021C13.9798 16.4021 11.4571 15.0007 9.90993 12.8522C9.90993 12.8522 9.74854 12.9578 9.66839 13.0118C6.24906 15.315 4 19.2225 4 23.6552V24.9999H29.6476V23.6552C29.6476 19.2422 27.4184 15.3497 24.0247 13.0425Z" fill="#7551FD"/>
<path d="M1.536 39.084C1.376 39.084 1.252 39.04 1.164 38.952C1.084 38.856 1.044 38.728 1.044 38.568V31.044C1.044 30.876 1.088 30.752 1.176 30.672C1.264 30.584 1.388 30.54 1.548 30.54H4.392C5.296 30.54 5.992 30.764 6.48 31.212C6.968 31.652 7.212 32.276 7.212 33.084C7.212 33.884 6.968 34.508 6.48 34.956C5.992 35.404 5.296 35.628 4.392 35.628H2.028V38.568C2.028 38.728 1.988 38.856 1.908 38.952C1.828 39.04 1.704 39.084 1.536 39.084ZM2.028 34.8H4.272C4.92 34.8 5.408 34.656 5.736 34.368C6.072 34.072 6.24 33.644 6.24 33.084C6.24 32.516 6.072 32.088 5.736 31.8C5.408 31.504 4.92 31.356 4.272 31.356H2.028V34.8ZM8.64056 39.084C8.48056 39.084 8.35656 39.04 8.26856 38.952C8.18856 38.864 8.14856 38.74 8.14856 38.58V33.576C8.14856 33.416 8.18856 33.296 8.26856 33.216C8.34856 33.128 8.46456 33.084 8.61656 33.084C8.76856 33.084 8.88456 33.128 8.96456 33.216C9.05256 33.296 9.09656 33.416 9.09656 33.576V34.548H8.97656C9.10456 34.076 9.34856 33.712 9.70856 33.456C10.0686 33.2 10.5126 33.064 11.0406 33.048C11.1606 33.04 11.2566 33.068 11.3286 33.132C11.4006 33.188 11.4406 33.288 11.4486 33.432C11.4566 33.568 11.4246 33.676 11.3526 33.756C11.2806 33.836 11.1686 33.884 11.0166 33.9L10.8246 33.924C10.2806 33.972 9.86056 34.148 9.56456 34.452C9.27656 34.748 9.13256 35.156 9.13256 35.676V38.58C9.13256 38.74 9.08856 38.864 9.00056 38.952C8.92056 39.04 8.80056 39.084 8.64056 39.084ZM14.563 39.108C13.995 39.108 13.503 38.984 13.087 38.736C12.671 38.488 12.347 38.14 12.115 37.692C11.891 37.236 11.779 36.7 11.779 36.084C11.779 35.62 11.843 35.204 11.971 34.836C12.099 34.46 12.287 34.14 12.535 33.876C12.783 33.612 13.075 33.412 13.411 33.276C13.755 33.132 14.139 33.06 14.563 33.06C15.131 33.06 15.623 33.184 16.039 33.432C16.455 33.68 16.775 34.032 16.999 34.488C17.231 34.936 17.347 35.468 17.347 36.084C17.347 36.548 17.283 36.964 17.155 37.332C17.027 37.7 16.839 38.02 16.591 38.292C16.343 38.556 16.047 38.76 15.703 38.904C15.367 39.04 14.987 39.108 14.563 39.108ZM14.563 38.328C14.923 38.328 15.239 38.24 15.511 38.064C15.783 37.888 15.991 37.632 16.135 37.296C16.287 36.96 16.363 36.556 16.363 36.084C16.363 35.356 16.199 34.8 15.871 34.416C15.551 34.032 15.115 33.84 14.563 33.84C14.195 33.84 13.875 33.928 13.603 34.104C13.339 34.272 13.131 34.524 12.979 34.86C12.835 35.188 12.763 35.596 12.763 36.084C12.763 36.804 12.927 37.36 13.255 37.752C13.583 38.136 14.019 38.328 14.563 38.328ZM19.3004 39.084C19.1484 39.084 19.0284 39.04 18.9404 38.952C18.8604 38.864 18.8204 38.74 18.8204 38.58V33.924H18.0524C17.9244 33.924 17.8204 33.892 17.7404 33.828C17.6684 33.756 17.6324 33.66 17.6324 33.54C17.6324 33.42 17.6684 33.328 17.7404 33.264C17.8204 33.2 17.9244 33.168 18.0524 33.168H19.0844L18.8204 33.42V32.964C18.8204 32.212 19.0004 31.636 19.3604 31.236C19.7284 30.836 20.2684 30.608 20.9804 30.552L21.3404 30.516C21.4604 30.508 21.5564 30.528 21.6284 30.576C21.7004 30.616 21.7444 30.672 21.7604 30.744C21.7844 30.816 21.7884 30.892 21.7724 30.972C21.7564 31.052 21.7204 31.12 21.6644 31.176C21.6164 31.232 21.5564 31.264 21.4844 31.272L21.1244 31.296C20.6524 31.328 20.3124 31.476 20.1044 31.74C19.8964 31.996 19.7924 32.364 19.7924 32.844V33.348L19.6484 33.168H22.9124C23.0644 33.168 23.1804 33.212 23.2604 33.3C23.3484 33.388 23.3924 33.516 23.3924 33.684V38.532C23.3924 38.7 23.3524 38.832 23.2724 38.928C23.1924 39.016 23.0724 39.06 22.9124 39.06C22.7524 39.06 22.6284 39.016 22.5404 38.928C22.4604 38.832 22.4204 38.7 22.4204 38.532V33.924H19.7924V38.58C19.7924 38.916 19.6284 39.084 19.3004 39.084ZM22.9244 31.764C22.7244 31.764 22.5684 31.712 22.4564 31.608C22.3524 31.496 22.3004 31.348 22.3004 31.164C22.3004 30.972 22.3524 30.828 22.4564 30.732C22.5684 30.628 22.7244 30.576 22.9244 30.576C23.1244 30.576 23.2764 30.628 23.3804 30.732C23.4924 30.828 23.5484 30.972 23.5484 31.164C23.5484 31.348 23.4924 31.496 23.3804 31.608C23.2764 31.712 23.1244 31.764 22.9244 31.764ZM26.7475 39.108C26.1715 39.108 25.7315 38.932 25.4275 38.58C25.1235 38.228 24.9715 37.724 24.9715 37.068V30.948C24.9715 30.788 25.0115 30.668 25.0915 30.588C25.1715 30.5 25.2915 30.456 25.4515 30.456C25.6035 30.456 25.7235 30.5 25.8115 30.588C25.8995 30.668 25.9435 30.788 25.9435 30.948V36.996C25.9435 37.428 26.0275 37.752 26.1955 37.968C26.3715 38.176 26.6275 38.28 26.9635 38.28C27.0355 38.28 27.0995 38.276 27.1555 38.268C27.2115 38.26 27.2675 38.256 27.3235 38.256C27.4115 38.248 27.4715 38.268 27.5035 38.316C27.5435 38.364 27.5635 38.46 27.5635 38.604C27.5635 38.748 27.5315 38.856 27.4675 38.928C27.4035 39 27.2995 39.048 27.1555 39.072C27.0915 39.08 27.0235 39.088 26.9515 39.096C26.8795 39.104 26.8115 39.108 26.7475 39.108ZM30.8517 39.108C30.2357 39.108 29.7037 38.988 29.2557 38.748C28.8157 38.5 28.4717 38.152 28.2237 37.704C27.9837 37.256 27.8637 36.72 27.8637 36.096C27.8637 35.488 27.9837 34.96 28.2237 34.512C28.4637 34.056 28.7917 33.7 29.2077 33.444C29.6317 33.188 30.1197 33.06 30.6717 33.06C31.0637 33.06 31.4157 33.128 31.7277 33.264C32.0397 33.392 32.3037 33.58 32.5197 33.828C32.7437 34.076 32.9117 34.376 33.0237 34.728C33.1437 35.08 33.2037 35.476 33.2037 35.916C33.2037 36.044 33.1677 36.14 33.0957 36.204C33.0237 36.26 32.9197 36.288 32.7837 36.288H28.6077V35.652H32.5557L32.3637 35.808C32.3637 35.376 32.2997 35.012 32.1717 34.716C32.0437 34.412 31.8557 34.18 31.6077 34.02C31.3677 33.86 31.0637 33.78 30.6957 33.78C30.2877 33.78 29.9397 33.876 29.6517 34.068C29.3717 34.252 29.1597 34.512 29.0157 34.848C28.8717 35.176 28.7997 35.56 28.7997 36V36.072C28.7997 36.808 28.9757 37.368 29.3277 37.752C29.6877 38.136 30.1957 38.328 30.8517 38.328C31.1237 38.328 31.3917 38.292 31.6557 38.22C31.9277 38.148 32.1917 38.028 32.4477 37.86C32.5597 37.788 32.6597 37.756 32.7477 37.764C32.8437 37.764 32.9197 37.792 32.9757 37.848C33.0317 37.896 33.0677 37.96 33.0837 38.04C33.1077 38.112 33.0997 38.192 33.0597 38.28C33.0277 38.368 32.9597 38.444 32.8557 38.508C32.5917 38.7 32.2797 38.848 31.9197 38.952C31.5597 39.056 31.2037 39.108 30.8517 39.108Z" fill="#7551FD"/>
</svg>
