<svg width="11" height="11" viewBox="0 0 11 11" fill="none" xmlns="http://www.w3.org/2000/svg">
<path d="M8.65445 1.75122H8.17209C8.07031 1.25803 7.80103 0.814888 7.40963 0.49648C7.01823 0.178073 6.52864 0.00387048 6.02339 0.00323486L5.14637 0.00323486C4.64111 0.00387048 4.15153 0.178073 3.76013 0.49648C3.36872 0.814888 3.09944 1.25803 2.99767 1.75122H2.51531C1.93402 1.75191 1.37674 1.98234 0.965706 2.39195C0.554674 2.80156 0.32345 3.35692 0.322754 3.9362L0.322754 8.30616C0.32345 8.88544 0.554674 9.44079 0.965706 9.85041C1.37674 10.26 1.93402 10.4904 2.51531 10.4911H8.65445C9.23573 10.4904 9.79301 10.26 10.204 9.85041C10.6151 9.44079 10.8463 8.88544 10.847 8.30616V3.9362C10.8463 3.35692 10.6151 2.80156 10.204 2.39195C9.79301 1.98234 9.23573 1.75191 8.65445 1.75122ZM5.14637 0.877227H6.02339C6.2945 0.878347 6.55865 0.962915 6.77968 1.11936C7.00072 1.27581 7.16786 1.49649 7.25823 1.75122H3.91152C4.00189 1.49649 4.16903 1.27581 4.39007 1.11936C4.61111 0.962915 4.87525 0.878347 5.14637 0.877227ZM2.51531 2.62521H8.65445C9.00335 2.62521 9.33796 2.76333 9.58467 3.00919C9.83138 3.25505 9.96998 3.5885 9.96998 3.9362V5.24719H1.19977V3.9362C1.19977 3.5885 1.33837 3.25505 1.58508 3.00919C1.83179 2.76333 2.1664 2.62521 2.51531 2.62521ZM8.65445 9.61715H2.51531C2.1664 9.61715 1.83179 9.47902 1.58508 9.23317C1.33837 8.98731 1.19977 8.65385 1.19977 8.30616V6.12118H5.14637V6.55817C5.14637 6.67407 5.19257 6.78522 5.2748 6.86718C5.35704 6.94913 5.46858 6.99517 5.58488 6.99517C5.70118 6.99517 5.81271 6.94913 5.89495 6.86718C5.97719 6.78522 6.02339 6.67407 6.02339 6.55817V6.12118H9.96998V8.30616C9.96998 8.65385 9.83138 8.98731 9.58467 9.23317C9.33796 9.47902 9.00335 9.61715 8.65445 9.61715Z" fill="#7551FD"/>
</svg>
