<svg width="13" height="13" viewBox="0 0 13 13" fill="none" xmlns="http://www.w3.org/2000/svg">
<g clip-path="url(#clip0_81_2542)">
<path d="M10.2917 2.16667H10.0165L8.8335 0.632667C8.68104 0.436478 8.48592 0.277559 8.26295 0.167946C8.03996 0.0583329 7.79496 0.000900815 7.5465 0L5.4535 0C5.20504 0.000900815 4.96004 0.0583329 4.73706 0.167946C4.51408 0.277559 4.31896 0.436478 4.1665 0.632667L2.9835 2.16667H2.70833C1.9903 2.16753 1.30193 2.45314 0.794202 2.96087C0.286478 3.46859 0.00086009 4.15697 0 4.875L0 10.2917C0.00086009 11.0097 0.286478 11.6981 0.794202 12.2058C1.30193 12.7135 1.9903 12.9991 2.70833 13H10.2917C11.0097 12.9991 11.6981 12.7135 12.2058 12.2058C12.7135 11.6981 12.9991 11.0097 13 10.2917V4.875C12.9991 4.15697 12.7135 3.46859 12.2058 2.96087C11.6981 2.45314 11.0097 2.16753 10.2917 2.16667ZM5.0245 1.29458C5.07524 1.22907 5.14025 1.17599 5.21459 1.13939C5.28893 1.10278 5.37064 1.08361 5.4535 1.08333H7.5465C7.62935 1.08369 7.71103 1.1029 7.78536 1.1395C7.85968 1.1761 7.92471 1.22913 7.9755 1.29458L8.64825 2.16667H4.35175L5.0245 1.29458ZM11.9167 10.2917C11.9167 10.7226 11.7455 11.136 11.4407 11.4407C11.136 11.7455 10.7226 11.9167 10.2917 11.9167H2.70833C2.27736 11.9167 1.86403 11.7455 1.55928 11.4407C1.25454 11.136 1.08333 10.7226 1.08333 10.2917V4.875C1.08333 4.44402 1.25454 4.0307 1.55928 3.72595C1.86403 3.42121 2.27736 3.25 2.70833 3.25H10.2917C10.7226 3.25 11.136 3.42121 11.4407 3.72595C11.7455 4.0307 11.9167 4.44402 11.9167 4.875V10.2917Z" fill="#7551FD"/>
<path d="M6.5 4.33337C5.85721 4.33337 5.22886 4.52398 4.6944 4.8811C4.15994 5.23821 3.74338 5.74579 3.49739 6.33965C3.25141 6.93351 3.18705 7.58698 3.31245 8.21742C3.43785 8.84786 3.74738 9.42695 4.2019 9.88147C4.65643 10.336 5.23552 10.6455 5.86596 10.7709C6.4964 10.8963 7.14986 10.832 7.74372 10.586C8.33758 10.34 8.84516 9.92344 9.20228 9.38898C9.55939 8.85452 9.75 8.22616 9.75 7.58337C9.74914 6.72168 9.40646 5.89553 8.79715 5.28623C8.18784 4.67692 7.36169 4.33423 6.5 4.33337ZM6.5 9.75004C6.07148 9.75004 5.65257 9.62297 5.29627 9.38489C4.93996 9.14682 4.66225 8.80843 4.49826 8.41252C4.33427 8.01662 4.29137 7.58097 4.37497 7.16068C4.45857 6.74039 4.66492 6.35432 4.96794 6.05131C5.27095 5.7483 5.65701 5.54194 6.07731 5.45834C6.4976 5.37474 6.93324 5.41764 7.32915 5.58163C7.72506 5.74562 8.06344 6.02333 8.30152 6.37964C8.5396 6.73595 8.66667 7.15485 8.66667 7.58337C8.66667 8.15801 8.4384 8.70911 8.03207 9.11544C7.62574 9.52177 7.07464 9.75004 6.5 9.75004Z" fill="#7551FD"/>
</g>
<defs>
<clipPath id="clip0_81_2542">
<rect width="13" height="13" fill="white"/>
</clipPath>
</defs>
</svg>
