<svg width="12" height="11" viewBox="0 0 12 11" fill="none" xmlns="http://www.w3.org/2000/svg">
<path d="M10.64 2.63056L7.19088 0.99305C6.43165 0.541109 5.48666 0.53309 4.71979 0.972074L1.23184 2.63056C1.21875 2.63709 1.20518 2.64409 1.19255 2.65154C0.364816 3.12319 0.0774603 4.17423 0.550744 4.9991C0.711173 5.27873 0.947158 5.50785 1.23184 5.66041L2.194 6.11722V8.40125C2.19457 9.42257 2.86143 10.3249 3.83999 10.6284C4.52097 10.8247 5.22708 10.9209 5.93596 10.9137C6.64472 10.9216 7.35083 10.8263 8.03193 10.6308C9.01048 10.3272 9.67735 9.42491 9.67792 8.40358V6.11628L10.6134 5.67065V9.51528C10.6134 9.77271 10.8228 9.9814 11.0811 9.9814C11.3395 9.9814 11.5489 9.77271 11.5489 9.51528V3.92173C11.552 3.37437 11.1183 2.86872 10.64 2.63056ZM8.7424 8.40358C8.74264 9.01448 8.34491 9.55485 7.76014 9.7381C7.16714 9.90696 6.55263 9.98892 5.93593 9.98142C5.31924 9.98892 4.70473 9.90696 4.11173 9.7381C3.52696 9.55483 3.12923 9.01448 3.12947 8.40358V6.56145L4.68098 7.29794C5.0638 7.52448 5.50102 7.64352 5.94624 7.6424C6.37002 7.6454 6.78667 7.53359 7.15162 7.31892L8.7424 6.56143V8.40358ZM10.2392 4.81904L6.71146 6.4971C6.21958 6.78252 5.6099 6.77444 5.12581 6.47613L1.67432 4.84001C1.28959 4.63327 1.14589 4.15487 1.35335 3.77149C1.42351 3.64184 1.52871 3.53436 1.65702 3.4612L5.16275 1.79247C5.65478 1.50768 6.26414 1.51574 6.74841 1.81344L10.1976 3.45096C10.4512 3.59132 10.6099 3.85638 10.6134 4.1455C10.6138 4.41936 10.4723 4.67404 10.2392 4.81904Z" fill="#7551FD"/>
</svg>
