<svg width="15" height="15" viewBox="0 0 15 15" fill="none" xmlns="http://www.w3.org/2000/svg">
<g clip-path="url(#clip0_195_2823)">
<path d="M7.5 15C3.36437 15 0 11.6356 0 7.5C0 3.36437 3.36437 0 7.5 0C11.6356 0 15 3.36437 15 7.5C15 11.6356 11.6356 15 7.5 15ZM7.5 1.25C4.05375 1.25 1.25 4.05375 1.25 7.5C1.25 10.9462 4.05375 13.75 7.5 13.75C10.9462 13.75 13.75 10.9462 13.75 7.5C13.75 4.05375 10.9462 1.25 7.5 1.25ZM9.0625 10.2063C9.36187 10.0337 9.46438 9.65125 9.29125 9.3525L8.125 7.3325V3.75C8.125 3.405 7.84562 3.125 7.5 3.125C7.15438 3.125 6.875 3.405 6.875 3.75V7.5C6.875 7.61 6.90375 7.7175 6.95875 7.8125L8.20875 9.9775C8.325 10.1781 8.53438 10.29 8.75063 10.29C8.85688 10.29 8.96437 10.2631 9.0625 10.2063Z" fill="#7551FD"/>
</g>
<defs>
<clipPath id="clip0_195_2823">
<rect width="15" height="15" fill="white"/>
</clipPath>
</defs>
</svg>
