<svg width="16" height="15" viewBox="0 0 16 15" fill="none" xmlns="http://www.w3.org/2000/svg">
<path d="M3.59375 4.07249C3.59375 6.32154 5.42216 8.14499 7.67734 8.14499C9.93251 8.14499 11.7609 6.32154 11.7609 4.07249C11.7609 1.82345 9.93205 0 7.67688 0C5.4217 0 3.59375 1.82345 3.59375 4.07249ZM10.8204 4.07249C10.8204 5.80126 9.41032 7.20749 7.67688 7.20749C5.94344 7.20749 4.53334 5.80126 4.53334 4.07249C4.53334 2.34376 5.9439 0.937499 7.67688 0.937499C9.40986 0.937499 10.8204 2.34376 10.8204 4.07249Z" fill="#626262"/>
<path d="M7.52043 14.9999H15.0408C15.0408 14.9999 15.093 10.7812 10.915 9.53101L7.52043 12.0834L4.12591 9.5315C-0.0521514 10.7812 3.09925e-05 14.9999 3.09925e-05 14.9999H7.52043ZM3.95859 10.5796L6.95453 12.8319L7.52043 13.2571L8.08633 12.8315L11.0823 10.5791C13.0864 11.3633 13.7605 13.0166 13.9866 14.0619H7.52043H1.05758C1.28743 13.0175 1.96427 11.3619 3.95859 10.5796Z" fill="#626262"/>
</svg>
