<svg width="13" height="15" viewBox="0 0 13 15" fill="none" xmlns="http://www.w3.org/2000/svg">
<path d="M12.125 2.5H10.1875C10.0424 1.79463 9.65864 1.16084 9.10078 0.705449C8.54293 0.250056 7.84513 0.000909078 7.125 0L5.875 0C5.15487 0.000909078 4.45707 0.250056 3.89922 0.705449C3.34136 1.16084 2.95756 1.79463 2.8125 2.5H0.875C0.70924 2.5 0.550269 2.56585 0.433058 2.68306C0.315848 2.80027 0.25 2.95924 0.25 3.125C0.25 3.29076 0.315848 3.44973 0.433058 3.56694C0.550269 3.68415 0.70924 3.75 0.875 3.75H1.5V11.875C1.50099 12.7035 1.83055 13.4978 2.41639 14.0836C3.00222 14.6694 3.7965 14.999 4.625 15H8.375C9.2035 14.999 9.99778 14.6694 10.5836 14.0836C11.1695 13.4978 11.499 12.7035 11.5 11.875V3.75H12.125C12.2908 3.75 12.4497 3.68415 12.5669 3.56694C12.6842 3.44973 12.75 3.29076 12.75 3.125C12.75 2.95924 12.6842 2.80027 12.5669 2.68306C12.4497 2.56585 12.2908 2.5 12.125 2.5ZM5.875 1.25H7.125C7.51267 1.25047 7.89071 1.37086 8.20726 1.59465C8.52381 1.81844 8.76339 2.13468 8.89313 2.5H4.10688C4.23661 2.13468 4.47619 1.81844 4.79274 1.59465C5.1093 1.37086 5.48733 1.25047 5.875 1.25ZM10.25 11.875C10.25 12.3723 10.0525 12.8492 9.70083 13.2008C9.3492 13.5525 8.87228 13.75 8.375 13.75H4.625C4.12772 13.75 3.65081 13.5525 3.29918 13.2008C2.94754 12.8492 2.75 12.3723 2.75 11.875V3.75H10.25V11.875Z" fill="#858585"/>
</svg>
