<svg width="35" height="43" viewBox="0 0 35 43" fill="none" xmlns="http://www.w3.org/2000/svg">
<path d="M1.584 39C1.224 39 1.044 38.82 1.044 38.46V31.08C1.044 30.72 1.224 30.54 1.584 30.54H6.048C6.328 30.54 6.468 30.676 6.468 30.948C6.468 31.228 6.328 31.368 6.048 31.368H2.004V34.296H5.796C6.076 34.296 6.216 34.432 6.216 34.704C6.216 34.984 6.076 35.124 5.796 35.124H2.004V38.172H6.048C6.328 38.172 6.468 38.308 6.468 38.58C6.468 38.86 6.328 39 6.048 39H1.584ZM9.73463 39.084C9.45463 39.084 9.24663 38.928 9.11063 38.616L7.03463 33.768C6.95463 33.584 6.95063 33.424 7.02263 33.288C7.09463 33.152 7.23863 33.084 7.45463 33.084C7.67863 33.084 7.84263 33.212 7.94663 33.468L9.75863 37.896L11.5946 33.468C11.6506 33.324 11.7146 33.224 11.7866 33.168C11.8586 33.112 11.9626 33.084 12.0986 33.084C12.2826 33.084 12.4066 33.152 12.4706 33.288C12.5346 33.424 12.5306 33.58 12.4586 33.756L10.3586 38.616C10.2306 38.928 10.0226 39.084 9.73463 39.084ZM16.0444 39.108C15.1244 39.108 14.3964 38.84 13.8604 38.304C13.3244 37.76 13.0564 37.024 13.0564 36.096C13.0564 35.496 13.1764 34.968 13.4164 34.512C13.6564 34.048 13.9844 33.692 14.4004 33.444C14.8244 33.188 15.3124 33.06 15.8644 33.06C16.6564 33.06 17.2764 33.316 17.7244 33.828C18.1724 34.332 18.3964 35.028 18.3964 35.916C18.3964 36.164 18.2564 36.288 17.9764 36.288H14.0044C14.0364 36.952 14.2284 37.46 14.5804 37.812C14.9324 38.156 15.4204 38.328 16.0444 38.328C16.3084 38.328 16.5764 38.296 16.8484 38.232C17.1204 38.16 17.3844 38.036 17.6404 37.86C17.8244 37.74 17.9764 37.716 18.0964 37.788C18.2244 37.86 18.2884 37.972 18.2884 38.124C18.2964 38.268 18.2164 38.396 18.0484 38.508C17.7844 38.7 17.4684 38.848 17.1004 38.952C16.7404 39.056 16.3884 39.108 16.0444 39.108ZM15.8884 33.78C15.3364 33.78 14.9004 33.952 14.5804 34.296C14.2604 34.64 14.0724 35.092 14.0164 35.652H17.5564C17.5324 35.06 17.3764 34.6 17.0884 34.272C16.8084 33.944 16.4084 33.78 15.8884 33.78ZM20.0431 39.084C19.7231 39.084 19.5631 38.916 19.5631 38.58V33.576C19.5631 33.248 19.7191 33.084 20.0311 33.084C20.3511 33.084 20.5111 33.248 20.5111 33.576V34.164C20.7031 33.796 20.9751 33.52 21.3271 33.336C21.6791 33.152 22.0751 33.06 22.5151 33.06C23.8991 33.06 24.5911 33.828 24.5911 35.364V38.58C24.5911 38.916 24.4311 39.084 24.1111 39.084C23.7831 39.084 23.6191 38.916 23.6191 38.58V35.424C23.6191 34.88 23.5111 34.484 23.2951 34.236C23.0871 33.98 22.7511 33.852 22.2871 33.852C21.7511 33.852 21.3231 34.02 21.0031 34.356C20.6911 34.684 20.5351 35.124 20.5351 35.676V38.58C20.5351 38.916 20.3711 39.084 20.0431 39.084ZM28.4834 39.108C27.7954 39.108 27.2794 38.928 26.9354 38.568C26.5914 38.2 26.4194 37.672 26.4194 36.984V33.924H25.6154C25.3354 33.924 25.1954 33.796 25.1954 33.54C25.1954 33.292 25.3354 33.168 25.6154 33.168H26.4194V31.788C26.4194 31.46 26.5834 31.296 26.9114 31.296C27.2314 31.296 27.3914 31.46 27.3914 31.788V33.168H28.9034C29.1834 33.168 29.3234 33.292 29.3234 33.54C29.3234 33.796 29.1834 33.924 28.9034 33.924H27.3914V36.888C27.3914 37.344 27.4874 37.692 27.6794 37.932C27.8714 38.164 28.1834 38.28 28.6154 38.28C28.7674 38.28 28.8954 38.264 28.9994 38.232C29.1034 38.2 29.1954 38.184 29.2754 38.184C29.3474 38.176 29.4074 38.2 29.4554 38.256C29.5034 38.312 29.5274 38.408 29.5274 38.544C29.5274 38.64 29.5074 38.728 29.4674 38.808C29.4354 38.888 29.3754 38.944 29.2874 38.976C29.1914 39.008 29.0634 39.036 28.9034 39.06C28.7514 39.092 28.6114 39.108 28.4834 39.108ZM32.0667 39.108C31.7067 39.108 31.3427 39.064 30.9747 38.976C30.6147 38.88 30.2787 38.728 29.9667 38.52C29.8227 38.432 29.7507 38.32 29.7507 38.184C29.7587 38.04 29.8147 37.928 29.9187 37.848C30.0227 37.768 30.1547 37.768 30.3147 37.848C30.6267 38.04 30.9267 38.176 31.2147 38.256C31.5107 38.328 31.8027 38.364 32.0907 38.364C32.5467 38.364 32.8907 38.28 33.1227 38.112C33.3547 37.944 33.4707 37.716 33.4707 37.428C33.4707 37.204 33.3947 37.028 33.2427 36.9C33.0907 36.764 32.8507 36.66 32.5227 36.588L31.4307 36.348C30.4387 36.132 29.9427 35.62 29.9427 34.812C29.9427 34.284 30.1507 33.86 30.5667 33.54C30.9907 33.22 31.5427 33.06 32.2227 33.06C32.5667 33.06 32.8987 33.108 33.2187 33.204C33.5387 33.292 33.8267 33.436 34.0827 33.636C34.2187 33.732 34.2787 33.848 34.2627 33.984C34.2467 34.12 34.1827 34.228 34.0707 34.308C33.9667 34.38 33.8387 34.368 33.6867 34.272C33.4467 34.112 33.2027 33.996 32.9547 33.924C32.7067 33.844 32.4627 33.804 32.2227 33.804C31.7747 33.804 31.4347 33.892 31.2027 34.068C30.9707 34.244 30.8547 34.476 30.8547 34.764C30.8547 35.212 31.1507 35.5 31.7427 35.628L32.8347 35.856C33.3467 35.968 33.7347 36.148 33.9987 36.396C34.2627 36.636 34.3947 36.964 34.3947 37.38C34.3947 37.916 34.1827 38.34 33.7587 38.652C33.3347 38.956 32.7707 39.108 32.0667 39.108Z" fill="#A0A0A0"/>
<path d="M11.1053 15.7258L15.4279 20.0484L23.5327 11.9436C23.6648 11.7893 23.7339 11.5908 23.726 11.3879C23.7182 11.1849 23.634 10.9924 23.4904 10.8488C23.3468 10.7051 23.1543 10.621 22.9513 10.6132C22.7483 10.6053 22.5499 10.6743 22.3956 10.8065L15.4279 17.7419L12.2504 14.5645C12.0962 14.4324 11.8977 14.3634 11.6948 14.3712C11.4918 14.3791 11.2993 14.4632 11.1556 14.6068C11.012 14.7504 10.9279 14.943 10.92 15.1459C10.9122 15.3489 10.9812 15.5474 11.1134 15.7016L11.1053 15.7258Z" fill="#A0A0A0"/>
<path d="M10.452 7.25807C10.6658 7.25807 10.871 7.17311 11.0222 7.02187C11.1734 6.87063 11.2584 6.6655 11.2584 6.45162V1.61291C11.2584 1.39902 11.1734 1.1939 11.0222 1.04266C10.871 0.891423 10.6658 0.806458 10.452 0.806458C10.2381 0.806458 10.033 0.891423 9.88171 1.04266C9.73047 1.1939 9.64551 1.39902 9.64551 1.61291V6.45162C9.64551 6.6655 9.73047 6.87063 9.88171 7.02187C10.033 7.17311 10.2381 7.25807 10.452 7.25807Z" fill="#A0A0A0"/>
<path d="M28.1938 9.85484V23.3871H5.61311V5.64516H8.03247V4.03226H5.4115C5.22298 4.03541 5.03693 4.07567 4.86397 4.15073C4.69101 4.2258 4.53454 4.3342 4.40348 4.46975C4.27243 4.6053 4.16936 4.76534 4.10016 4.94073C4.03097 5.11611 3.997 5.30342 4.00021 5.49193V23.5403C3.997 23.7288 4.03097 23.9161 4.10016 24.0915C4.16936 24.2669 4.27243 24.427 4.40348 24.5625C4.53454 24.6981 4.69101 24.8065 4.86397 24.8815C5.03693 24.9566 5.22298 24.9968 5.4115 25H28.3954C28.5839 24.9968 28.7699 24.9566 28.9429 24.8815C29.1159 24.8065 29.2723 24.6981 29.4034 24.5625C29.5344 24.427 29.6375 24.2669 29.7067 24.0915C29.7759 23.9161 29.8099 23.7288 29.8067 23.5403V9.14516C29.3068 9.4597 28.7633 9.69883 28.1938 9.85484Z" fill="#A0A0A0"/>
<path d="M20.5329 4.03226H12.8716V5.64516H20.7587C20.6109 5.12018 20.535 4.57762 20.5329 4.03226Z" fill="#A0A0A0"/>
<path d="M26.5811 8.06452C28.808 8.06452 30.6133 6.25921 30.6133 4.03226C30.6133 1.8053 28.808 0 26.5811 0C24.3541 0 22.5488 1.8053 22.5488 4.03226C22.5488 6.25921 24.3541 8.06452 26.5811 8.06452Z" fill="#A0A0A0"/>
</svg>
