<svg width="14" height="15" viewBox="0 0 14 15" fill="none" xmlns="http://www.w3.org/2000/svg">
<path d="M3.64709 14.7854C2.62748 14.7854 1.60788 14.7854 0.588269 14.7854C0.196112 14.7854 3.37453e-05 14.5707 3.37453e-05 14.1682C3.37453e-05 13.5376 -0.02611 12.8936 0.091537 12.263C0.444478 10.3712 2.02618 8.80146 3.86931 8.50629C4.1569 8.46604 4.43141 8.43921 4.71899 8.43921C5.38565 8.43921 6.05232 8.43921 6.73206 8.43921C7.05886 8.43921 7.29415 8.65388 7.29415 8.96246C7.29415 9.27105 7.05886 9.49914 6.73206 9.49914C6.03925 9.49914 5.34644 9.49914 4.65363 9.49914C2.83664 9.49914 1.34644 10.814 1.05886 12.6521C1.00657 12.9741 1.01964 13.3095 1.01964 13.6449C1.01964 13.7254 1.04579 13.7389 1.11114 13.7389C1.13729 13.7389 1.1765 13.7389 1.20265 13.7389C3.01964 13.7389 4.84971 13.7389 6.6667 13.7389C6.73206 13.7389 6.79742 13.7389 6.86278 13.7523C7.12422 13.8059 7.30722 14.0474 7.28108 14.3158C7.26801 14.5707 7.05886 14.7854 6.79742 14.7988C6.74513 14.7988 6.70592 14.7988 6.65363 14.7988C5.66017 14.7854 4.65363 14.7854 3.64709 14.7854Z" fill="#626262"/>
<path d="M13.5817 8.144C13.0196 7.21823 12.1568 6.80231 11.098 6.93648C9.21567 7.17798 8.26142 9.36493 9.32025 10.9884C9.37253 11.0689 9.39868 11.1494 9.39868 11.2433C9.39868 11.7665 9.39868 12.3032 9.39868 12.8265C9.39868 13.3497 9.39868 13.8864 9.39868 14.4096C9.39868 14.6377 9.47711 14.8256 9.67319 14.9329C9.86927 15.0402 10.0653 15 10.2484 14.8658C10.6144 14.6109 10.9804 14.3694 11.3333 14.1011C11.4117 14.0474 11.451 14.0474 11.5294 14.1011C11.8823 14.356 12.2353 14.5975 12.5882 14.839C12.7843 14.9732 12.9804 15.0268 13.1895 14.9195C13.3987 14.7987 13.464 14.6109 13.464 14.3694C13.464 13.3363 13.464 12.2898 13.464 11.2567C13.464 11.1494 13.4902 11.0554 13.5555 10.9749C14.1176 10.0358 14.1568 9.08317 13.5817 8.144ZM12.4314 13.4705C12.2091 13.3095 12 13.1619 11.7908 13.0277C11.5294 12.8533 11.3464 12.8533 11.085 13.0277C10.8758 13.1753 10.6667 13.3229 10.4314 13.4839C10.4314 12.9875 10.4314 12.5045 10.4314 12.0349C10.4314 11.9678 10.4444 11.9544 10.5098 11.9812C11.1503 12.2361 11.7908 12.2093 12.4314 11.9544C12.4314 12.4508 12.4314 12.9472 12.4314 13.4705ZM11.4379 11.0823C10.6144 11.0823 9.93462 10.3846 9.92155 9.52593C9.92155 8.66725 10.5882 7.96958 11.4248 7.96958C12.2614 7.95616 12.9542 8.65383 12.9542 9.51251C12.9542 10.3712 12.2614 11.0823 11.4379 11.0823Z" fill="#626262"/>
<path d="M7.20257 0C5.21564 0 3.59473 1.66369 3.59473 3.70304C3.59473 5.7424 5.21564 7.39266 7.1895 7.39266C9.17643 7.39266 10.7973 5.7424 10.7973 3.68962C10.7973 1.65027 9.1895 0 7.20257 0ZM7.1895 6.33274C5.77773 6.33274 4.62741 5.13864 4.62741 3.67621C4.62741 2.22719 5.7908 1.04651 7.20257 1.04651C8.62741 1.04651 9.77773 2.22719 9.76466 3.68962C9.76466 5.16547 8.61433 6.34615 7.1895 6.33274Z" fill="#626262"/>
</svg>
