<svg width="16" height="15" viewBox="0 0 16 15" fill="none" xmlns="http://www.w3.org/2000/svg">
<path d="M14.9852 2.35217L8.06215 0.0444733C7.88452 -0.0148244 7.69243 -0.0148244 7.5148 0.0444733L0.609144 2.34636L0.605482 2.34757L0.591714 2.35217C0.579178 2.35634 0.567117 2.3614 0.554881 2.3661C0.540373 2.37168 0.525998 2.37743 0.511886 2.38376C0.494227 2.39166 0.476762 2.39987 0.459807 2.40886C0.451285 2.41339 0.44309 2.41841 0.434735 2.42321C0.420384 2.43145 0.406231 2.4399 0.392463 2.4489C0.384575 2.45406 0.376846 2.45939 0.369126 2.46482C0.354943 2.47475 0.341121 2.48508 0.327659 2.49582C0.321162 2.50098 0.314613 2.50605 0.308266 2.5114C0.292183 2.52496 0.27666 2.53907 0.261697 2.55373C0.258492 2.55686 0.255068 2.55975 0.251907 2.56292C0.234002 2.58095 0.216948 2.59972 0.200744 2.61922C0.196175 2.6247 0.192011 2.63049 0.187583 2.63607C0.176394 2.65019 0.165531 2.66453 0.155249 2.67932C0.14958 2.68745 0.144192 2.69574 0.138807 2.70407C0.130393 2.7171 0.122344 2.73035 0.11466 2.74382C0.109422 2.75296 0.104167 2.76205 0.099254 2.77141C0.091622 2.78596 0.08465 2.80087 0.0778358 2.81587C0.0740678 2.82416 0.0699124 2.83221 0.066409 2.84064C0.0571479 2.86288 0.048926 2.88561 0.0415132 2.90865C0.0384938 2.91809 0.0360729 2.92776 0.0333643 2.93732C0.028945 2.95293 0.0247897 2.9686 0.021233 2.98452C0.0189793 2.99466 0.0169724 3.00487 0.0150707 3.01516C0.0119373 3.03208 0.00940168 3.04914 0.00725408 3.06636C0.0061536 3.0753 0.00485915 3.08419 0.00403199 3.09323C0.00159304 3.11963 0 3.14622 0 3.17312V8.94236C0 9.17188 0.0911744 9.39199 0.253466 9.55428C0.415757 9.71657 0.635872 9.80775 0.865386 9.80775C1.0949 9.80775 1.31502 9.71657 1.47731 9.55428C1.6396 9.39199 1.73077 9.17188 1.73077 8.94236V4.37375L3.44096 4.94382C2.91283 5.955 2.75433 7.11886 2.99282 8.23444C3.23131 9.35003 3.85183 10.3473 4.74725 11.0542C3.52136 11.6246 2.48059 12.5282 1.74377 13.6619C1.61846 13.8542 1.57464 14.0883 1.62195 14.3129C1.66926 14.5374 1.80383 14.734 1.99606 14.8593C2.18828 14.9847 2.42243 15.0286 2.64699 14.9813C2.87156 14.934 3.06815 14.7995 3.19354 14.6073C3.69145 13.8423 4.37251 13.2137 5.17491 12.7785C5.97731 12.3434 6.87566 12.1154 7.78846 12.1154C8.70126 12.1154 9.59961 12.3434 10.402 12.7785C11.2044 13.2137 11.8855 13.8423 12.3834 14.6073C12.5087 14.7996 12.7053 14.9341 12.9299 14.9814C13.1545 15.0287 13.3887 14.9849 13.581 14.8595C13.7732 14.7341 13.9078 14.5375 13.9551 14.3129C14.0024 14.0883 13.9585 13.8542 13.8332 13.6619C13.0963 12.5282 12.0556 11.6246 10.8297 11.0542C11.7251 10.3473 12.3456 9.35004 12.5841 8.23445C12.8226 7.11886 12.6641 5.95501 12.136 4.94382L14.9852 3.99407C15.1575 3.93663 15.3074 3.82644 15.4136 3.6791C15.5198 3.53176 15.577 3.35474 15.577 3.17312C15.577 2.99149 15.5198 2.81447 15.4136 2.66713C15.3074 2.51979 15.1575 2.4096 14.9852 2.35217ZM7.78848 1.77764L11.975 3.17312L10.4817 3.67088L10.4793 3.67168L7.78848 4.5686L5.09761 3.67166L5.09556 3.67097L3.60197 3.17312L7.78848 1.77764ZM10.9616 7.21159C10.9617 7.70444 10.8469 8.19053 10.6265 8.63134C10.4061 9.07215 10.086 9.45556 9.69168 9.75116C9.29732 10.0468 8.83953 10.2465 8.35459 10.3344C7.86965 10.4223 7.37089 10.3961 6.89786 10.2577C6.42482 10.1194 5.99051 9.87279 5.62935 9.53743C5.2682 9.20207 4.99012 8.78719 4.81718 8.32569C4.64423 7.86418 4.58116 7.36873 4.63298 6.87862C4.68479 6.3885 4.85006 5.91719 5.11569 5.50205L7.5148 6.30176C7.69244 6.36101 7.88451 6.36101 8.06215 6.30176L10.4613 5.50205C10.7883 6.01223 10.9619 6.60559 10.9616 7.21159Z" fill="#626262"/>
</svg>
