<svg width="32" height="43" viewBox="0 0 32 43" fill="none" xmlns="http://www.w3.org/2000/svg">
<path d="M1.536 39.084C1.376 39.084 1.252 39.04 1.164 38.952C1.084 38.856 1.044 38.728 1.044 38.568V30.972C1.044 30.804 1.084 30.676 1.164 30.588C1.252 30.5 1.376 30.456 1.536 30.456C1.696 30.456 1.816 30.5 1.896 30.588C1.984 30.676 2.028 30.804 2.028 30.972V34.284H7.104V30.972C7.104 30.804 7.144 30.676 7.224 30.588C7.312 30.5 7.436 30.456 7.596 30.456C7.756 30.456 7.876 30.5 7.956 30.588C8.044 30.676 8.088 30.804 8.088 30.972V38.568C8.088 38.728 8.044 38.856 7.956 38.952C7.876 39.04 7.756 39.084 7.596 39.084C7.436 39.084 7.312 39.04 7.224 38.952C7.144 38.856 7.104 38.728 7.104 38.568V35.136H2.028V38.568C2.028 38.728 1.988 38.856 1.908 38.952C1.828 39.04 1.704 39.084 1.536 39.084ZM12.2249 39.108C11.6569 39.108 11.1649 38.984 10.7489 38.736C10.3329 38.488 10.0089 38.14 9.77691 37.692C9.55291 37.236 9.44091 36.7 9.44091 36.084C9.44091 35.62 9.50491 35.204 9.63291 34.836C9.76091 34.46 9.94891 34.14 10.1969 33.876C10.4449 33.612 10.7369 33.412 11.0729 33.276C11.4169 33.132 11.8009 33.06 12.2249 33.06C12.7929 33.06 13.2849 33.184 13.7009 33.432C14.1169 33.68 14.4369 34.032 14.6609 34.488C14.8929 34.936 15.0089 35.468 15.0089 36.084C15.0089 36.548 14.9449 36.964 14.8169 37.332C14.6889 37.7 14.5009 38.02 14.2529 38.292C14.0049 38.556 13.7089 38.76 13.3649 38.904C13.0289 39.04 12.6489 39.108 12.2249 39.108ZM12.2249 38.328C12.5849 38.328 12.9009 38.24 13.1729 38.064C13.4449 37.888 13.6529 37.632 13.7969 37.296C13.9489 36.96 14.0249 36.556 14.0249 36.084C14.0249 35.356 13.8609 34.8 13.5329 34.416C13.2129 34.032 12.7769 33.84 12.2249 33.84C11.8569 33.84 11.5369 33.928 11.2649 34.104C11.0009 34.272 10.7929 34.524 10.6409 34.86C10.4969 35.188 10.4249 35.596 10.4249 36.084C10.4249 36.804 10.5889 37.36 10.9169 37.752C11.2449 38.136 11.6809 38.328 12.2249 38.328ZM16.7329 39.084C16.5729 39.084 16.4529 39.04 16.3729 38.952C16.2929 38.864 16.2529 38.74 16.2529 38.58V33.576C16.2529 33.416 16.2929 33.296 16.3729 33.216C16.4529 33.128 16.5689 33.084 16.7209 33.084C16.8729 33.084 16.9889 33.128 17.0689 33.216C17.1569 33.296 17.2009 33.416 17.2009 33.576V34.632L17.0689 34.464C17.2209 34.016 17.4649 33.672 17.8009 33.432C18.1449 33.184 18.5529 33.06 19.0249 33.06C19.5209 33.06 19.9209 33.18 20.2249 33.42C20.5369 33.652 20.7449 34.016 20.8489 34.512H20.6689C20.8129 34.064 21.0689 33.712 21.4369 33.456C21.8129 33.192 22.2489 33.06 22.7449 33.06C23.1849 33.06 23.5449 33.144 23.8249 33.312C24.1129 33.48 24.3289 33.736 24.4729 34.08C24.6169 34.416 24.6889 34.844 24.6889 35.364V38.58C24.6889 38.74 24.6449 38.864 24.5569 38.952C24.4769 39.04 24.3569 39.084 24.1969 39.084C24.0449 39.084 23.9249 39.04 23.8369 38.952C23.7569 38.864 23.7169 38.74 23.7169 38.58V35.412C23.7169 34.876 23.6249 34.484 23.4409 34.236C23.2569 33.98 22.9449 33.852 22.5049 33.852C22.0249 33.852 21.6449 34.02 21.3649 34.356C21.0929 34.684 20.9569 35.132 20.9569 35.7V38.58C20.9569 38.74 20.9129 38.864 20.8249 38.952C20.7449 39.04 20.6249 39.084 20.4649 39.084C20.3129 39.084 20.1929 39.04 20.1049 38.952C20.0249 38.864 19.9849 38.74 19.9849 38.58V35.412C19.9849 34.876 19.8889 34.484 19.6969 34.236C19.5129 33.98 19.2049 33.852 18.7729 33.852C18.2929 33.852 17.9129 34.02 17.6329 34.356C17.3609 34.684 17.2249 35.132 17.2249 35.7V38.58C17.2249 38.916 17.0609 39.084 16.7329 39.084ZM28.8942 39.108C28.2782 39.108 27.7462 38.988 27.2982 38.748C26.8582 38.5 26.5142 38.152 26.2662 37.704C26.0262 37.256 25.9062 36.72 25.9062 36.096C25.9062 35.488 26.0262 34.96 26.2662 34.512C26.5062 34.056 26.8342 33.7 27.2502 33.444C27.6742 33.188 28.1622 33.06 28.7142 33.06C29.1062 33.06 29.4582 33.128 29.7702 33.264C30.0822 33.392 30.3462 33.58 30.5622 33.828C30.7862 34.076 30.9542 34.376 31.0662 34.728C31.1862 35.08 31.2462 35.476 31.2462 35.916C31.2462 36.044 31.2102 36.14 31.1382 36.204C31.0662 36.26 30.9622 36.288 30.8262 36.288H26.6502V35.652H30.5982L30.4062 35.808C30.4062 35.376 30.3422 35.012 30.2142 34.716C30.0862 34.412 29.8982 34.18 29.6502 34.02C29.4102 33.86 29.1062 33.78 28.7382 33.78C28.3302 33.78 27.9822 33.876 27.6942 34.068C27.4142 34.252 27.2022 34.512 27.0582 34.848C26.9142 35.176 26.8422 35.56 26.8422 36V36.072C26.8422 36.808 27.0182 37.368 27.3702 37.752C27.7302 38.136 28.2382 38.328 28.8942 38.328C29.1662 38.328 29.4342 38.292 29.6982 38.22C29.9702 38.148 30.2342 38.028 30.4902 37.86C30.6022 37.788 30.7022 37.756 30.7902 37.764C30.8862 37.764 30.9622 37.792 31.0182 37.848C31.0742 37.896 31.1102 37.96 31.1262 38.04C31.1502 38.112 31.1422 38.192 31.1022 38.28C31.0702 38.368 31.0022 38.444 30.8982 38.508C30.6342 38.7 30.3222 38.848 29.9622 38.952C29.6022 39.056 29.2462 39.108 28.8942 39.108Z" fill="#A0A0A0"/>
<path d="M26.3643 12.1558L17.6059 4.93065C17.2007 4.5962 16.6154 4.5962 16.21 4.93065L7.45168 12.1558C7.19898 12.3642 7.05273 12.6744 7.05273 13.0018V23.9032C7.05273 24.5091 7.54366 25 8.14954 25H25.6661C26.272 25 26.7629 24.5091 26.7629 23.9032V13.0018C26.7632 12.6744 26.617 12.3642 26.3643 12.1558ZM18.0677 22.8064H15.7484V16.7339H18.0676V22.8064H18.0677ZM24.5696 22.8064H20.2613V15.6371C20.2613 15.0312 19.7704 14.5403 19.1645 14.5403H14.6516C14.0457 14.5403 13.5547 15.0312 13.5547 15.6371V22.8064H9.24649V13.5189L16.908 7.19855L24.5696 13.5189V22.8064Z" fill="#A0A0A0"/>
<path d="M29.4049 9.95549C26.9618 7.99849 24.6582 6.1272 22.1571 4.06769C21.4099 3.3963 20.6246 2.76059 19.8648 2.1455C19.1208 1.54328 18.3515 0.92044 17.6418 0.28166C17.2244 -0.0938866 16.5915 -0.0938866 16.1742 0.28166C15.4644 0.92044 14.6951 1.54328 13.9512 2.1455C13.1915 2.76044 12.4062 3.3963 11.6589 4.06769C9.15788 6.12734 6.8543 7.99849 4.4112 9.95549C3.9384 10.3341 3.86206 11.0245 4.24083 11.4972C4.61945 11.9698 5.31 12.0463 5.7825 11.6675C8.23964 9.69957 10.5558 7.81789 13.0719 5.7458C13.0843 5.73571 13.0964 5.72518 13.1084 5.71436C13.8183 5.07558 14.5875 4.45274 15.3314 3.85052C15.8519 3.42935 16.3842 2.99837 16.9081 2.55293C17.4319 2.99837 17.9644 3.42935 18.4847 3.85052C19.2286 4.45274 19.998 5.07558 20.7077 5.71436C20.7197 5.72518 20.7318 5.73571 20.7443 5.7458C23.2602 7.81789 25.5765 9.69957 28.0336 11.6675C28.236 11.8296 28.4781 11.9082 28.7186 11.9082C29.0401 11.9082 29.3587 11.7676 29.5753 11.497C29.9541 11.0245 29.8777 10.3341 29.4049 9.95549Z" fill="#A0A0A0"/>
</svg>
