<svg width="122" height="122" viewBox="0 0 122 122" fill="none" xmlns="http://www.w3.org/2000/svg">
<circle cx="61" cy="61" r="61" fill="#7551FD"/>
<path d="M61.5 26.9166C58.08 26.9166 54.7369 27.9308 51.8933 29.8308C49.0497 31.7308 46.8333 34.4314 45.5246 37.5911C44.2158 40.7507 43.8734 44.2275 44.5406 47.5817C45.2078 50.936 46.8547 54.0171 49.2729 56.4353C51.6912 58.8536 54.7723 60.5005 58.1266 61.1677C61.4808 61.8349 64.9576 61.4925 68.1172 60.1837C71.2769 58.8749 73.9775 56.6586 75.8775 53.815C77.7775 50.9714 78.7917 47.6283 78.7917 44.2083C78.7917 39.6223 76.9699 35.2241 73.7271 31.9812C70.4842 28.7384 66.086 26.9166 61.5 26.9166ZM61.5 54.5833C59.448 54.5833 57.4421 53.9748 55.736 52.8348C54.0298 51.6948 52.7 50.0744 51.9147 48.1786C51.1295 46.2829 50.924 44.1968 51.3244 42.1842C51.7247 40.1717 52.7128 38.323 54.1638 36.8721C55.6147 35.4211 57.4634 34.433 59.4759 34.0326C61.4885 33.6323 63.5746 33.8378 65.4703 34.623C67.3661 35.4083 68.9865 36.7381 70.1265 38.4443C71.2665 40.1504 71.875 42.1563 71.875 44.2083C71.875 46.9599 70.7819 49.5988 68.8362 51.5445C66.8905 53.4902 64.2516 54.5833 61.5 54.5833ZM92.625 92.625V89.1666C92.625 82.7462 90.0745 76.5887 85.5345 72.0488C80.9946 67.5088 74.8371 64.9583 68.4167 64.9583H54.5833C48.1629 64.9583 42.0054 67.5088 37.4655 72.0488C32.9255 76.5887 30.375 82.7462 30.375 89.1666V92.625H37.2917V89.1666C37.2917 84.5806 39.1135 80.1824 42.3563 76.9396C45.5991 73.6968 49.9973 71.875 54.5833 71.875H68.4167C73.0027 71.875 77.4009 73.6968 80.6437 76.9396C83.8865 80.1824 85.7083 84.5806 85.7083 89.1666V92.625H92.625Z" fill="white"/>
</svg>
