<svg width="428" height="119" viewBox="0 0 428 119" fill="none" xmlns="http://www.w3.org/2000/svg">
<rect width="428" height="119" fill="#7551FD"/>
<mask id="mask0_88_5389" style="mask-type:alpha" maskUnits="userSpaceOnUse" x="0" y="0" width="428" height="119">
<rect width="428" height="119" fill="#7551FD"/>
</mask>
<g mask="url(#mask0_88_5389)">
<path d="M-11 28L5.07529 12.7285C7.64552 10.2868 10.8186 8.5721 14.2695 7.76012L30.8672 3.85478C33.2683 3.2898 35.5443 2.28551 37.5801 0.892583L53.5 -10" stroke="#B8A6FF"/>
<path d="M-9 34L7.07529 18.7285C9.64552 16.2868 12.8186 14.5721 16.2695 13.7601L32.8672 9.85478C35.2683 9.2898 37.5443 8.28551 39.5801 6.89258L55.5 -4" stroke="#B8A6FF"/>
<path d="M-9 42L7.07529 26.7285C9.64552 24.2868 12.8186 22.5721 16.2695 21.7601L32.8672 17.8548C35.2683 17.2898 37.5443 16.2855 39.5801 14.8926L55.5 4L65.0293 -4" stroke="#B8A6FF"/>
<path d="M-9 50L7.07529 34.7285C9.64552 32.2868 12.8186 30.5721 16.2695 29.7601L32.8672 25.8548C35.2683 25.2898 37.5443 24.2855 39.5801 22.8926L55.5 12L74 -4" stroke="#B8A6FF"/>
<path d="M15 132L35.5 110L51.5753 94.7285C54.1455 92.2868 57.3186 90.5721 60.7695 89.7601L77.3672 85.8548C79.7683 85.2898 82.0443 84.2855 84.0801 82.8926L100 72" stroke="#B8A6FF"/>
<path d="M25.0205 132L37.5 118L53.5753 102.728C56.1455 100.287 59.3186 98.5721 62.7695 97.7601L79.3672 93.8548C81.7683 93.2898 84.0443 92.2855 86.0801 90.8926L102 80" stroke="#B8A6FF"/>
<path d="M32.0254 132L37.5 126L53.5753 110.728C56.1455 108.287 59.3186 106.572 62.7695 105.76L79.3672 101.855C81.7683 101.29 84.0443 100.286 86.0801 98.8926L102 88L107.529 84" stroke="#B8A6FF"/>
<path d="M37.5 134L53.5753 118.728C56.1455 116.287 59.3186 114.572 62.7695 113.76L79.3672 109.855C81.7683 109.29 84.0443 108.286 86.0801 106.893L102 96L114.5 86" stroke="#B8A6FF"/>
<path d="M128 40L148.5 18L164.575 2.72847C167.146 0.286753 170.319 -1.4279 173.769 -2.23988L190.367 -6.14522C192.768 -6.7102 195.044 -7.71449 197.08 -9.10742L213 -20" stroke="#B8A6FF"/>
<path d="M138.021 40L150.5 26L166.575 10.7285C169.146 8.28675 172.319 6.5721 175.769 5.76012L192.367 1.85478C194.768 1.2898 197.044 0.285506 199.08 -1.10742L215 -12" stroke="#B8A6FF"/>
<path d="M145.025 40L150.5 34L166.575 18.7285C169.146 16.2868 172.319 14.5721 175.769 13.7601L192.367 9.85478C194.768 9.2898 197.044 8.28551 199.08 6.89258L215 -4L220.529 -8" stroke="#B8A6FF"/>
<path d="M150.5 42L166.575 26.7285C169.146 24.2868 172.319 22.5721 175.769 21.7601L192.367 17.8548C194.768 17.2898 197.044 16.2855 199.08 14.8926L215 4L227.5 -6" stroke="#B8A6FF"/>
<path d="M199 94L219.5 72L235.575 56.7285C238.146 54.2868 241.319 52.5721 244.769 51.7601L261.367 47.8548C263.768 47.2898 266.044 46.2855 268.08 44.8926L284 34" stroke="#B8A6FF"/>
<path d="M209.021 94L221.5 80L237.575 64.7285C240.146 62.2868 243.319 60.5721 246.769 59.7601L263.367 55.8548C265.768 55.2898 268.044 54.2855 270.08 52.8926L286 42" stroke="#B8A6FF"/>
<path d="M216.025 94L221.5 88L237.575 72.7285C240.146 70.2868 243.319 68.5721 246.769 67.7601L263.367 63.8548C265.768 63.2898 268.044 62.2855 270.08 60.8926L286 50L291.529 46" stroke="#B8A6FF"/>
<path d="M221.5 96L237.575 80.7285C240.146 78.2868 243.319 76.5721 246.769 75.7601L263.367 71.8548C265.768 71.2898 268.044 70.2855 270.08 68.8926L286 58L298.5 48" stroke="#B8A6FF"/>
<path d="M296 132L316.5 110L332.575 94.7285C335.146 92.2868 338.319 90.5721 341.769 89.7601L358.367 85.8548C360.768 85.2898 363.044 84.2855 365.08 82.8926L381 72" stroke="#B8A6FF"/>
<path d="M306.021 132L318.5 118L334.575 102.728C337.146 100.287 340.319 98.5721 343.769 97.7601L360.367 93.8548C362.768 93.2898 365.044 92.2855 367.08 90.8926L383 80" stroke="#B8A6FF"/>
<path d="M313.025 132L318.5 126L334.575 110.728C337.146 108.287 340.319 106.572 343.769 105.76L360.367 101.855C362.768 101.29 365.044 100.286 367.08 98.8926L383 88L388.529 84" stroke="#B8A6FF"/>
<path d="M318.5 134L334.575 118.728C337.146 116.287 340.319 114.572 343.769 113.76L360.367 109.855C362.768 109.29 365.044 108.286 367.08 106.893L383 96L395.5 86" stroke="#B8A6FF"/>
<path d="M350 48L370.5 26L386.575 10.7285C389.146 8.28675 392.319 6.5721 395.769 5.76012L412.367 1.85478C414.768 1.2898 417.044 0.285506 419.08 -1.10742L435 -12" stroke="#B8A6FF"/>
<path d="M360.021 48L372.5 34L388.575 18.7285C391.146 16.2868 394.319 14.5721 397.769 13.7601L414.367 9.85478C416.768 9.2898 419.044 8.28551 421.08 6.89258L437 -4" stroke="#B8A6FF"/>
<path d="M367.025 48L372.5 42L388.575 26.7285C391.146 24.2868 394.319 22.5721 397.769 21.7601L414.367 17.8548C416.768 17.2898 419.044 16.2855 421.08 14.8926L437 4L442.529 0" stroke="#B8A6FF"/>
<path d="M372.5 50L388.575 34.7285C391.146 32.2868 394.319 30.5721 397.769 29.7601L414.367 25.8548C416.768 25.2898 419.044 24.2855 421.08 22.8926L437 12L449.5 2" stroke="#B8A6FF"/>
</g>
</svg>
