<svg width="16" height="15" viewBox="0 0 16 15" fill="none" xmlns="http://www.w3.org/2000/svg">
<g clip-path="url(#clip0_88_4467)">
<path d="M4.6875 14.5625C7.10375 14.5625 9.0625 12.6037 9.0625 10.1875C9.0625 7.77125 7.10375 5.8125 4.6875 5.8125C2.27125 5.8125 0.3125 7.77125 0.3125 10.1875C0.3125 12.6037 2.27125 14.5625 4.6875 14.5625Z" stroke="#626262" stroke-width="0.625"/>
<path d="M10.9375 14.5625C13.3537 14.5625 15.3125 12.6037 15.3125 10.1875C15.3125 7.77125 13.3537 5.8125 10.9375 5.8125C8.52125 5.8125 6.5625 7.77125 6.5625 10.1875C6.5625 12.6037 8.52125 14.5625 10.9375 14.5625Z" stroke="#626262" stroke-width="0.625"/>
<path d="M7.8125 9.0625C10.2287 9.0625 12.1875 7.10375 12.1875 4.6875C12.1875 2.27125 10.2287 0.3125 7.8125 0.3125C5.39625 0.3125 3.4375 2.27125 3.4375 4.6875C3.4375 7.10375 5.39625 9.0625 7.8125 9.0625Z" stroke="#626262" stroke-width="0.625"/>
</g>
<defs>
<clipPath id="clip0_88_4467">
<rect width="15.625" height="14.875" fill="white"/>
</clipPath>
</defs>
</svg>
