<svg width="96" height="17" viewBox="0 0 96 17" fill="none" xmlns="http://www.w3.org/2000/svg">
<path d="M15.4818 5.96693L10.6856 5.23878L8.54162 0.698181C8.48306 0.573862 8.38672 0.473223 8.26772 0.41205C7.96926 0.258132 7.60657 0.386397 7.45734 0.698181L5.31333 5.23878L0.517177 5.96693C0.384947 5.98666 0.264052 6.05178 0.171491 6.15045C0.0595904 6.2706 -0.00207205 6.43224 5.31675e-05 6.59985C0.00217839 6.76747 0.0679173 6.92735 0.182825 7.04436L3.65291 10.5786L2.83308 15.5691C2.81386 15.6852 2.82616 15.8046 2.86858 15.9137C2.91101 16.0229 2.98186 16.1174 3.07311 16.1867C3.16437 16.2559 3.27236 16.297 3.38486 16.3054C3.49735 16.3138 3.60984 16.2891 3.70958 16.2341L7.99948 13.8779L12.2894 16.2341C12.4065 16.2992 12.5425 16.3209 12.6729 16.2972C13.0015 16.238 13.2225 15.9124 13.1659 15.5691L12.3461 10.5786L15.8161 7.04436C15.9106 6.94767 15.9729 6.82137 15.9918 6.68324C16.0428 6.33791 15.8124 6.01824 15.4818 5.96693Z" fill="#F1C232"/>
<path d="M35.4818 5.96693L30.6856 5.23878L28.5416 0.698181C28.4831 0.573862 28.3867 0.473223 28.2677 0.41205C27.9693 0.258132 27.6066 0.386397 27.4573 0.698181L25.3133 5.23878L20.5172 5.96693C20.3849 5.98666 20.2641 6.05178 20.1715 6.15045C20.0596 6.2706 19.9979 6.43224 20.0001 6.59985C20.0022 6.76747 20.0679 6.92735 20.1828 7.04436L23.6529 10.5786L22.8331 15.5691C22.8139 15.6852 22.8262 15.8046 22.8686 15.9137C22.911 16.0229 22.9819 16.1174 23.0731 16.1867C23.1644 16.2559 23.2724 16.297 23.3849 16.3054C23.4974 16.3138 23.6098 16.2891 23.7096 16.2341L27.9995 13.8779L32.2894 16.2341C32.4065 16.2992 32.5425 16.3209 32.6729 16.2972C33.0015 16.238 33.2225 15.9124 33.1659 15.5691L32.3461 10.5786L35.8161 7.04436C35.9106 6.94767 35.9729 6.82137 35.9918 6.68324C36.0428 6.33791 35.8124 6.01824 35.4818 5.96693Z" fill="#F1C232"/>
<path d="M55.4818 5.96693L50.6856 5.23878L48.5416 0.698181C48.4831 0.573862 48.3867 0.473223 48.2677 0.41205C47.9693 0.258132 47.6066 0.386397 47.4573 0.698181L45.3133 5.23878L40.5172 5.96693C40.3849 5.98666 40.2641 6.05178 40.1715 6.15045C40.0596 6.2706 39.9979 6.43224 40.0001 6.59985C40.0022 6.76747 40.0679 6.92735 40.1828 7.04436L43.6529 10.5786L42.8331 15.5691C42.8139 15.6852 42.8262 15.8046 42.8686 15.9137C42.911 16.0229 42.9819 16.1174 43.0731 16.1867C43.1644 16.2559 43.2724 16.297 43.3849 16.3054C43.4974 16.3138 43.6098 16.2891 43.7096 16.2341L47.9995 13.8779L52.2894 16.2341C52.4065 16.2992 52.5425 16.3209 52.6729 16.2972C53.0015 16.238 53.2225 15.9124 53.1659 15.5691L52.3461 10.5786L55.8161 7.04436C55.9106 6.94767 55.9729 6.82137 55.9918 6.68324C56.0428 6.33791 55.8124 6.01824 55.4818 5.96693Z" fill="#F1C232"/>
<path d="M75.4818 5.96693L70.6856 5.23878L68.5416 0.698181C68.4831 0.573862 68.3867 0.473223 68.2677 0.41205C67.9693 0.258132 67.6066 0.386397 67.4573 0.698181L65.3133 5.23878L60.5172 5.96693C60.3849 5.98666 60.2641 6.05178 60.1715 6.15045C60.0596 6.2706 59.9979 6.43224 60.0001 6.59985C60.0022 6.76747 60.0679 6.92735 60.1828 7.04436L63.6529 10.5786L62.8331 15.5691C62.8139 15.6852 62.8262 15.8046 62.8686 15.9137C62.911 16.0229 62.9819 16.1174 63.0731 16.1867C63.1644 16.2559 63.2724 16.297 63.3849 16.3054C63.4974 16.3138 63.6098 16.2891 63.7096 16.2341L67.9995 13.8779L72.2894 16.2341C72.4065 16.2992 72.5425 16.3209 72.6729 16.2972C73.0015 16.238 73.2225 15.9124 73.1659 15.5691L72.3461 10.5786L75.8161 7.04436C75.9106 6.94767 75.9729 6.82137 75.9918 6.68324C76.0428 6.33791 75.8124 6.01824 75.4818 5.96693Z" fill="#F1C232"/>
<path d="M90.2335 5.45227L90.3472 5.69313L90.6106 5.73311L95.4051 6.46101C95.4052 6.46103 95.4054 6.46106 95.4055 6.46108C95.4512 6.46843 95.51 6.52327 95.4972 6.61019L95.4971 6.61018L95.4964 6.6155C95.492 6.6476 95.4779 6.67493 95.4588 6.69465C95.4587 6.69476 95.4586 6.69487 95.4585 6.69498L91.9893 10.2283L91.8115 10.4093L91.8527 10.6596L92.6725 15.6501L92.6726 15.6505C92.6876 15.7419 92.6266 15.7975 92.5842 15.8051L92.5835 15.8053C92.5656 15.8085 92.5472 15.8053 92.5324 15.7971L92.5301 15.7958L88.2402 13.4397L87.9995 13.3075L87.7588 13.4397L83.4689 15.7958L83.4681 15.7963C83.4525 15.8049 83.4367 15.8079 83.422 15.8068C83.4072 15.8057 83.391 15.8002 83.3753 15.7883C83.3594 15.7763 83.3444 15.7576 83.3346 15.7326C83.3248 15.7074 83.3217 15.6788 83.3264 15.6508L83.3265 15.6501L84.1463 10.6596L84.1874 10.4093L84.0097 10.2283L80.5396 6.69406L80.5396 6.69403C80.5171 6.67119 80.5005 6.63547 80.5 6.59351C80.4995 6.55192 80.5149 6.51571 80.5368 6.49187C80.5555 6.47221 80.575 6.46383 80.591 6.46145L80.5922 6.46126L85.3884 5.73311L85.6517 5.69313L85.7655 5.45227L87.9083 0.914046C87.9085 0.913785 87.9086 0.913524 87.9087 0.913265C87.9257 0.878196 87.9508 0.859824 87.9731 0.851926C87.9951 0.844165 88.0168 0.845215 88.0385 0.856438L88.0391 0.856741C88.0572 0.866046 88.0764 0.883793 88.0893 0.911245L88.0895 0.911671L90.2335 5.45227Z" stroke="#F1C232"/>
</svg>
