<svg width="16" height="15" viewBox="0 0 16 15" fill="none" xmlns="http://www.w3.org/2000/svg">
<path d="M14.8231 13.9309L10.5158 9.62055C11.365 8.60219 11.8757 7.30079 11.8757 5.8794C11.8757 2.63665 9.21444 0 5.94093 0C2.66742 0 0 2.63973 0 5.88247C0 9.12522 2.66127 11.7619 5.93478 11.7619C7.3254 11.7619 8.60527 11.285 9.62055 10.4882L13.9432 14.8108C14.1955 15.0631 14.5708 15.0631 14.8231 14.8108C15.0754 14.5585 15.0754 14.1832 14.8231 13.9309ZM1.26141 5.88247C1.26141 3.33504 3.35966 1.26449 5.93478 1.26449C8.5099 1.26449 10.6081 3.33504 10.6081 5.88247C10.6081 8.4299 8.5099 10.5005 5.93478 10.5005C3.35966 10.5005 1.26141 8.42683 1.26141 5.88247Z" fill="#A0A0A0"/>
</svg>
