<svg width="12" height="12" viewBox="0 0 12 12" fill="none" xmlns="http://www.w3.org/2000/svg">
<g clip-path="url(#clip0_88_4245)">
<path d="M5.738 7.5C5.60539 7.5 5.47821 7.55268 5.38445 7.64645C5.29068 7.74021 5.238 7.86739 5.238 8V9.5C5.238 9.89782 5.07996 10.2794 4.79866 10.5607C4.51736 10.842 4.13582 11 3.738 11H2.5C2.10218 11 1.72064 10.842 1.43934 10.5607C1.15804 10.2794 1 9.89782 1 9.5V2.5C1 2.10218 1.15804 1.72064 1.43934 1.43934C1.72064 1.15804 2.10218 1 2.5 1H3.738C4.13582 1 4.51736 1.15804 4.79866 1.43934C5.07996 1.72064 5.238 2.10218 5.238 2.5V4C5.238 4.13261 5.29068 4.25979 5.38445 4.35355C5.47821 4.44732 5.60539 4.5 5.738 4.5C5.87061 4.5 5.99779 4.44732 6.09155 4.35355C6.18532 4.25979 6.238 4.13261 6.238 4V2.5C6.23721 1.8372 5.97356 1.20178 5.50489 0.73311C5.03622 0.264441 4.4008 0.000793929 3.738 0H2.5C1.8372 0.000793929 1.20178 0.264441 0.73311 0.73311C0.264441 1.20178 0.000793929 1.8372 0 2.5L0 9.5C0.000793929 10.1628 0.264441 10.7982 0.73311 11.2669C1.20178 11.7356 1.8372 11.9992 2.5 12H3.738C4.4008 11.9992 5.03622 11.7356 5.50489 11.2669C5.97356 10.7982 6.23721 10.1628 6.238 9.5V8C6.238 7.86739 6.18532 7.74021 6.09155 7.64645C5.99779 7.55268 5.87061 7.5 5.738 7.5Z" fill="#7551FD"/>
<path d="M11.4335 4.93948L9.1405 2.64648C9.09438 2.59872 9.0392 2.56063 8.9782 2.53443C8.9172 2.50822 8.85159 2.49443 8.7852 2.49385C8.71881 2.49328 8.65297 2.50593 8.59152 2.53107C8.53008 2.55621 8.47425 2.59334 8.4273 2.64028C8.38036 2.68723 8.34323 2.74305 8.31809 2.8045C8.29295 2.86595 8.2803 2.93179 8.28088 2.99818C8.28145 3.06457 8.29524 3.13018 8.32145 3.19118C8.34765 3.25218 8.38575 3.30736 8.4335 3.35348L10.5645 5.48498L3 5.49998C2.86739 5.49998 2.74021 5.55266 2.64645 5.64643C2.55268 5.74019 2.5 5.86737 2.5 5.99998C2.5 6.13259 2.55268 6.25977 2.64645 6.35353C2.74021 6.4473 2.86739 6.49998 3 6.49998L10.594 6.48448L8.4325 8.64648C8.38474 8.6926 8.34665 8.74778 8.32045 8.80878C8.29424 8.86978 8.28045 8.93539 8.27987 9.00178C8.2793 9.06817 8.29195 9.13401 8.31709 9.19546C8.34223 9.25691 8.37936 9.31273 8.4263 9.35968C8.47325 9.40662 8.52907 9.44375 8.59052 9.46889C8.65197 9.49403 8.71781 9.50668 8.7842 9.50611C8.85059 9.50553 8.9162 9.49174 8.9772 9.46553C9.0382 9.43933 9.09338 9.40124 9.1395 9.35348L11.4325 7.06048C11.7138 6.77932 11.872 6.39793 11.8722 6.00019C11.8724 5.60244 11.7146 5.2209 11.4335 4.93948Z" fill="#7551FD"/>
</g>
<defs>
<clipPath id="clip0_88_4245">
<rect width="12" height="12" fill="white"/>
</clipPath>
</defs>
</svg>
