<svg width="8" height="8" viewBox="0 0 8 8" fill="none" xmlns="http://www.w3.org/2000/svg">
<path d="M7.56474 2.91971L5.32122 2.57945L4.31831 0.457659C4.29091 0.399565 4.24585 0.352537 4.19018 0.323951C4.05057 0.252026 3.88091 0.311964 3.81111 0.457659L2.8082 2.57945L0.564676 2.91971C0.502823 2.92894 0.446271 2.95937 0.402973 3.00547C0.350629 3.06162 0.321785 3.13715 0.322779 3.21548C0.323773 3.2938 0.354524 3.36851 0.408275 3.42319L2.03149 5.07471L1.648 7.40674C1.639 7.46099 1.64476 7.51678 1.6646 7.56779C1.68445 7.6188 1.71759 7.66299 1.76028 7.69534C1.80296 7.7277 1.85348 7.74692 1.9061 7.75084C1.95873 7.75475 2.01135 7.7432 2.058 7.7175L4.06471 6.61649L6.07141 7.7175C6.1262 7.74793 6.18982 7.75807 6.25079 7.747C6.40454 7.71934 6.50793 7.56719 6.48142 7.40674L6.09792 5.07471L7.72114 3.42319C7.76532 3.37801 7.79448 3.31899 7.80332 3.25444C7.82717 3.09307 7.71937 2.94369 7.56474 2.91971Z" fill="#7551FD"/>
</svg>
