<svg width="15" height="15" viewBox="0 0 15 15" fill="none" xmlns="http://www.w3.org/2000/svg">
<path d="M14.88 12.6229L9.83813 0.972886C9.51313 0.175386 8.60125 -0.211489 7.80125 0.116011L7.2225 0.352261C6.99875 0.443511 6.80313 0.582261 6.64688 0.757886C6.37313 0.304136 5.87563 0.000385854 5.30813 0.000385854H1.5625C0.70125 -0.000239146 0 0.700386 0 1.56226V13.4373C0 14.2991 0.70125 14.9998 1.5625 14.9998H5.30813C6.16938 14.9998 6.87063 14.2991 6.87063 13.4373V3.55539L11.4113 14.0491C11.7375 14.8529 12.67 15.2273 13.4481 14.9035L14.0263 14.6673C14.8144 14.3635 15.2175 13.401 14.88 12.6229ZM7.81563 4.16601L10.1306 3.22226L13.4869 10.9791L11.1719 11.9235L7.81563 4.16601ZM0.625 3.74976H3.12063V11.2498H0.625V3.74976ZM3.74563 3.74976H6.24563V11.2498H3.74563V3.74976ZM6.24563 1.56226V3.12476H3.74563V0.624761H5.30813C5.825 0.624761 6.24563 1.04539 6.24563 1.56226ZM1.5625 0.624761H3.12063V3.12476H0.625V1.56226C0.625 1.04539 1.04563 0.624761 1.5625 0.624761ZM0.625 13.4373V11.8748H3.12063V14.3748H1.5625C1.04563 14.3748 0.625 13.9541 0.625 13.4373ZM5.30813 14.3748H3.74563V11.8748H6.24563V13.4373C6.24563 13.9541 5.825 14.3748 5.30813 14.3748ZM7.45875 0.930386L8.0375 0.694136C8.50688 0.500386 9.06375 0.726011 9.26188 1.21414L9.8825 2.64789L7.5675 3.59164L6.94438 2.15164C6.74938 1.67289 6.98 1.12476 7.45875 0.929761V0.930386ZM14.3006 13.5835C14.2038 13.8141 14.0225 13.9935 13.7906 14.0885L13.2125 14.3248C12.7344 14.5198 12.1856 14.2898 11.9881 13.8066L11.4213 12.4966L13.7363 11.5523L14.3044 12.8654C14.3994 13.0973 14.3981 13.3523 14.3013 13.5835H14.3006Z" fill="#7551FD"/>
</svg>
