<svg width="52" height="43" viewBox="0 0 52 43" fill="none" xmlns="http://www.w3.org/2000/svg">
<path d="M4.38 39.108C3.82 39.108 3.328 39.036 2.904 38.892C2.488 38.74 2.136 38.52 1.848 38.232C1.56 37.936 1.344 37.572 1.2 37.14C1.056 36.708 0.984 36.212 0.984 35.652V30.96C0.984 30.792 1.024 30.668 1.104 30.588C1.192 30.5 1.316 30.456 1.476 30.456C1.636 30.456 1.756 30.5 1.836 30.588C1.924 30.668 1.968 30.792 1.968 30.96V35.604C1.968 36.484 2.172 37.144 2.58 37.584C2.988 38.016 3.588 38.232 4.38 38.232C5.172 38.232 5.768 38.016 6.168 37.584C6.568 37.144 6.768 36.484 6.768 35.604V30.96C6.768 30.792 6.812 30.668 6.9 30.588C6.988 30.5 7.112 30.456 7.272 30.456C7.424 30.456 7.54 30.5 7.62 30.588C7.708 30.668 7.752 30.792 7.752 30.96V35.652C7.752 36.396 7.624 37.028 7.368 37.548C7.12 38.068 6.744 38.46 6.24 38.724C5.736 38.98 5.116 39.108 4.38 39.108ZM9.88247 39.084C9.72247 39.084 9.60247 39.04 9.52247 38.952C9.44247 38.864 9.40247 38.74 9.40247 38.58V33.576C9.40247 33.416 9.44247 33.296 9.52247 33.216C9.60247 33.128 9.71847 33.084 9.87047 33.084C10.0225 33.084 10.1385 33.128 10.2185 33.216C10.3065 33.296 10.3505 33.416 10.3505 33.576V34.608L10.2185 34.464C10.3865 34 10.6585 33.652 11.0345 33.42C11.4185 33.18 11.8585 33.06 12.3545 33.06C12.8185 33.06 13.2025 33.144 13.5065 33.312C13.8185 33.48 14.0505 33.736 14.2025 34.08C14.3545 34.416 14.4305 34.844 14.4305 35.364V38.58C14.4305 38.74 14.3865 38.864 14.2985 38.952C14.2185 39.04 14.1025 39.084 13.9505 39.084C13.7905 39.084 13.6665 39.04 13.5785 38.952C13.4985 38.864 13.4585 38.74 13.4585 38.58V35.424C13.4585 34.88 13.3505 34.484 13.1345 34.236C12.9265 33.98 12.5905 33.852 12.1265 33.852C11.5905 33.852 11.1625 34.02 10.8425 34.356C10.5305 34.684 10.3745 35.124 10.3745 35.676V38.58C10.3745 38.916 10.2105 39.084 9.88247 39.084ZM16.4628 39.06C16.3028 39.06 16.1828 39.016 16.1028 38.928C16.0228 38.832 15.9828 38.7 15.9828 38.532V33.624C15.9828 33.456 16.0228 33.328 16.1028 33.24C16.1828 33.152 16.3028 33.108 16.4628 33.108C16.6148 33.108 16.7348 33.152 16.8228 33.24C16.9108 33.328 16.9548 33.456 16.9548 33.624V38.532C16.9548 38.7 16.9108 38.832 16.8228 38.928C16.7428 39.016 16.6228 39.06 16.4628 39.06ZM16.4628 31.764C16.2628 31.764 16.1068 31.712 15.9948 31.608C15.8828 31.496 15.8268 31.348 15.8268 31.164C15.8268 30.972 15.8828 30.828 15.9948 30.732C16.1068 30.628 16.2628 30.576 16.4628 30.576C16.6708 30.576 16.8268 30.628 16.9308 30.732C17.0428 30.828 17.0988 30.972 17.0988 31.164C17.0988 31.348 17.0428 31.496 16.9308 31.608C16.8268 31.712 16.6708 31.764 16.4628 31.764ZM20.7038 39.084C20.5678 39.084 20.4478 39.048 20.3438 38.976C20.2398 38.896 20.1518 38.776 20.0798 38.616L18.0038 33.768C17.9478 33.648 17.9278 33.536 17.9438 33.432C17.9598 33.328 18.0078 33.244 18.0878 33.18C18.1678 33.116 18.2798 33.084 18.4238 33.084C18.5518 33.084 18.6518 33.112 18.7238 33.168C18.7958 33.224 18.8598 33.324 18.9158 33.468L20.8838 38.28H20.5598L22.5638 33.468C22.6198 33.324 22.6838 33.224 22.7558 33.168C22.8278 33.112 22.9318 33.084 23.0678 33.084C23.1958 33.084 23.2918 33.116 23.3558 33.18C23.4278 33.244 23.4678 33.328 23.4758 33.432C23.4918 33.528 23.4758 33.636 23.4278 33.756L21.3278 38.616C21.2718 38.776 21.1878 38.896 21.0758 38.976C20.9718 39.048 20.8478 39.084 20.7038 39.084ZM27.0136 39.108C26.3976 39.108 25.8656 38.988 25.4176 38.748C24.9776 38.5 24.6336 38.152 24.3856 37.704C24.1456 37.256 24.0256 36.72 24.0256 36.096C24.0256 35.488 24.1456 34.96 24.3856 34.512C24.6256 34.056 24.9536 33.7 25.3696 33.444C25.7936 33.188 26.2816 33.06 26.8336 33.06C27.2256 33.06 27.5776 33.128 27.8896 33.264C28.2016 33.392 28.4656 33.58 28.6816 33.828C28.9056 34.076 29.0736 34.376 29.1856 34.728C29.3056 35.08 29.3656 35.476 29.3656 35.916C29.3656 36.044 29.3296 36.14 29.2576 36.204C29.1856 36.26 29.0816 36.288 28.9456 36.288H24.7696V35.652H28.7176L28.5256 35.808C28.5256 35.376 28.4616 35.012 28.3336 34.716C28.2056 34.412 28.0176 34.18 27.7696 34.02C27.5296 33.86 27.2256 33.78 26.8576 33.78C26.4496 33.78 26.1016 33.876 25.8136 34.068C25.5336 34.252 25.3216 34.512 25.1776 34.848C25.0336 35.176 24.9616 35.56 24.9616 36V36.072C24.9616 36.808 25.1376 37.368 25.4896 37.752C25.8496 38.136 26.3576 38.328 27.0136 38.328C27.2856 38.328 27.5536 38.292 27.8176 38.22C28.0896 38.148 28.3536 38.028 28.6096 37.86C28.7216 37.788 28.8216 37.756 28.9096 37.764C29.0056 37.764 29.0816 37.792 29.1376 37.848C29.1936 37.896 29.2296 37.96 29.2456 38.04C29.2696 38.112 29.2616 38.192 29.2216 38.28C29.1896 38.368 29.1216 38.444 29.0176 38.508C28.7536 38.7 28.4416 38.848 28.0816 38.952C27.7216 39.056 27.3656 39.108 27.0136 39.108ZM31.0243 39.084C30.8643 39.084 30.7403 39.04 30.6523 38.952C30.5723 38.864 30.5323 38.74 30.5323 38.58V33.576C30.5323 33.416 30.5723 33.296 30.6523 33.216C30.7323 33.128 30.8483 33.084 31.0003 33.084C31.1523 33.084 31.2683 33.128 31.3483 33.216C31.4363 33.296 31.4803 33.416 31.4803 33.576V34.548H31.3603C31.4883 34.076 31.7323 33.712 32.0923 33.456C32.4523 33.2 32.8963 33.064 33.4243 33.048C33.5443 33.04 33.6403 33.068 33.7123 33.132C33.7843 33.188 33.8243 33.288 33.8323 33.432C33.8403 33.568 33.8083 33.676 33.7363 33.756C33.6643 33.836 33.5523 33.884 33.4003 33.9L33.2083 33.924C32.6643 33.972 32.2443 34.148 31.9483 34.452C31.6603 34.748 31.5163 35.156 31.5163 35.676V38.58C31.5163 38.74 31.4723 38.864 31.3843 38.952C31.3043 39.04 31.1843 39.084 31.0243 39.084ZM36.5025 39.108C36.1425 39.108 35.7785 39.064 35.4105 38.976C35.0505 38.888 34.7145 38.736 34.4025 38.52C34.3225 38.464 34.2665 38.4 34.2345 38.328C34.2025 38.248 34.1905 38.172 34.1985 38.1C34.2145 38.02 34.2465 37.952 34.2945 37.896C34.3505 37.84 34.4145 37.808 34.4865 37.8C34.5665 37.784 34.6545 37.8 34.7505 37.848C35.0625 38.04 35.3625 38.176 35.6505 38.256C35.9465 38.328 36.2385 38.364 36.5265 38.364C36.9825 38.364 37.3265 38.28 37.5585 38.112C37.7905 37.944 37.9065 37.716 37.9065 37.428C37.9065 37.204 37.8305 37.028 37.6785 36.9C37.5265 36.764 37.2865 36.66 36.9585 36.588L35.8665 36.348C35.3625 36.244 34.9865 36.064 34.7385 35.808C34.4985 35.552 34.3785 35.22 34.3785 34.812C34.3785 34.452 34.4705 34.144 34.6545 33.888C34.8465 33.624 35.1145 33.42 35.4585 33.276C35.8025 33.132 36.2025 33.06 36.6585 33.06C37.0105 33.06 37.3425 33.108 37.6545 33.204C37.9745 33.292 38.2625 33.436 38.5185 33.636C38.5985 33.692 38.6505 33.76 38.6745 33.84C38.7065 33.912 38.7105 33.988 38.6865 34.068C38.6705 34.14 38.6345 34.204 38.5785 34.26C38.5225 34.308 38.4545 34.336 38.3745 34.344C38.2945 34.352 38.2105 34.328 38.1225 34.272C37.8825 34.112 37.6385 33.996 37.3905 33.924C37.1425 33.844 36.8985 33.804 36.6585 33.804C36.2105 33.804 35.8705 33.892 35.6385 34.068C35.4065 34.244 35.2905 34.476 35.2905 34.764C35.2905 34.988 35.3625 35.172 35.5065 35.316C35.6505 35.46 35.8745 35.564 36.1785 35.628L37.2705 35.856C37.7905 35.968 38.1785 36.148 38.4345 36.396C38.6985 36.636 38.8305 36.964 38.8305 37.38C38.8305 37.908 38.6185 38.328 38.1945 38.64C37.7705 38.952 37.2065 39.108 36.5025 39.108ZM40.5518 39.06C40.3918 39.06 40.2718 39.016 40.1918 38.928C40.1118 38.832 40.0718 38.7 40.0718 38.532V33.624C40.0718 33.456 40.1118 33.328 40.1918 33.24C40.2718 33.152 40.3918 33.108 40.5518 33.108C40.7038 33.108 40.8238 33.152 40.9118 33.24C40.9998 33.328 41.0438 33.456 41.0438 33.624V38.532C41.0438 38.7 40.9998 38.832 40.9118 38.928C40.8318 39.016 40.7118 39.06 40.5518 39.06ZM40.5518 31.764C40.3518 31.764 40.1958 31.712 40.0838 31.608C39.9718 31.496 39.9158 31.348 39.9158 31.164C39.9158 30.972 39.9718 30.828 40.0838 30.732C40.1958 30.628 40.3518 30.576 40.5518 30.576C40.7598 30.576 40.9158 30.628 41.0198 30.732C41.1318 30.828 41.1878 30.972 41.1878 31.164C41.1878 31.348 41.1318 31.496 41.0198 31.608C40.9158 31.712 40.7598 31.764 40.5518 31.764ZM44.9609 39.108C44.5049 39.108 44.1209 39.028 43.8089 38.868C43.5049 38.7 43.2769 38.46 43.1249 38.148C42.9729 37.828 42.8969 37.44 42.8969 36.984V33.924H42.0929C41.9569 33.924 41.8529 33.892 41.7809 33.828C41.7089 33.756 41.6729 33.66 41.6729 33.54C41.6729 33.42 41.7089 33.328 41.7809 33.264C41.8529 33.2 41.9569 33.168 42.0929 33.168H42.8969V31.788C42.8969 31.628 42.9409 31.508 43.0289 31.428C43.1169 31.34 43.2369 31.296 43.3889 31.296C43.5409 31.296 43.6569 31.34 43.7369 31.428C43.8249 31.508 43.8689 31.628 43.8689 31.788V33.168H45.3809C45.5169 33.168 45.6209 33.2 45.6929 33.264C45.7649 33.328 45.8009 33.42 45.8009 33.54C45.8009 33.66 45.7649 33.756 45.6929 33.828C45.6209 33.892 45.5169 33.924 45.3809 33.924H43.8689V36.888C43.8689 37.344 43.9649 37.692 44.1569 37.932C44.3489 38.164 44.6609 38.28 45.0929 38.28C45.2449 38.28 45.3729 38.264 45.4769 38.232C45.5889 38.2 45.6809 38.184 45.7529 38.184C45.8249 38.176 45.8849 38.2 45.9329 38.256C45.9809 38.312 46.0049 38.408 46.0049 38.544C46.0049 38.64 45.9849 38.728 45.9449 38.808C45.9129 38.888 45.8529 38.944 45.7649 38.976C45.6689 39.008 45.5409 39.036 45.3809 39.06C45.2289 39.092 45.0889 39.108 44.9609 39.108ZM47.9425 41.244C47.8225 41.244 47.7265 41.212 47.6545 41.148C47.5825 41.084 47.5385 40.996 47.5225 40.884C47.5145 40.78 47.5345 40.672 47.5825 40.56L48.4105 38.7V39.12L46.1065 33.768C46.0585 33.648 46.0425 33.536 46.0585 33.432C46.0745 33.328 46.1225 33.244 46.2025 33.18C46.2825 33.116 46.3945 33.084 46.5385 33.084C46.6665 33.084 46.7665 33.112 46.8385 33.168C46.9105 33.224 46.9745 33.324 47.0305 33.468L48.9985 38.292H48.6745L50.6665 33.468C50.7305 33.324 50.7985 33.224 50.8705 33.168C50.9425 33.112 51.0465 33.084 51.1825 33.084C51.3105 33.084 51.4065 33.116 51.4705 33.18C51.5425 33.244 51.5825 33.328 51.5905 33.432C51.6065 33.528 51.5905 33.636 51.5425 33.756L48.4705 40.86C48.4065 41.004 48.3345 41.104 48.2545 41.16C48.1825 41.216 48.0785 41.244 47.9425 41.244Z" fill="#A0A0A0"/>
<path d="M14.5909 14.2301H33.2039C33.4738 14.2301 33.6927 14.0113 33.6927 13.7414V2.38992C33.6927 2.12001 33.4738 1.90116 33.2039 1.90116H14.5909C14.321 1.90116 14.1022 2.12001 14.1022 2.38992V13.7414C14.1022 14.0113 14.321 14.2301 14.5909 14.2301ZM15.0797 2.87869H32.7152V13.2526H15.0797V2.87869ZM24.8783 18.7602H22.9168C21.3109 18.7602 20.0045 20.0666 20.0045 21.6725V24.5112C20.0045 24.7812 20.2233 25 20.4932 25H27.3017C27.5717 25 27.7905 24.7812 27.7905 24.5112V21.6725C27.7905 20.0666 26.4841 18.7602 24.8783 18.7602ZM26.813 24.0225H20.982V21.6725C20.982 20.6057 21.8499 19.7377 22.9168 19.7377H24.8783C25.9451 19.7377 26.813 20.6057 26.813 21.6725V24.0225ZM22.0789 0.488762C22.0789 0.218843 22.2977 0 22.5677 0H25.2272C25.4971 0 25.716 0.218843 25.716 0.488762C25.716 0.758681 25.4971 0.977524 25.2272 0.977524H22.5677C22.2977 0.977524 22.0789 0.758681 22.0789 0.488762ZM11 17.3498C11 17.0799 11.2188 16.8611 11.4888 16.8611H13.209C13.2083 16.8508 13.208 16.8405 13.208 16.8301C13.208 16.5602 13.4268 16.3413 13.6967 16.3413H16.3563C16.6262 16.3413 16.845 16.5602 16.845 16.8301C16.845 16.8405 16.8447 16.8508 16.8441 16.8611H22.0797C22.0791 16.8508 22.0788 16.8405 22.0788 16.8301C22.0788 16.5602 22.2976 16.3413 22.5675 16.3413H25.2271C25.497 16.3413 25.7158 16.5602 25.7158 16.8301C25.7158 16.8405 25.7155 16.8508 25.7149 16.8611H30.9507C30.95 16.8508 30.9497 16.8405 30.9497 16.8301C30.9497 16.5602 31.1685 16.3413 31.4384 16.3413H34.098C34.3679 16.3413 34.5867 16.5602 34.5867 16.8301C34.5867 16.8405 34.5864 16.8508 34.5858 16.8611H36.3058C36.5758 16.8611 36.7946 17.0799 36.7946 17.3498C36.7946 17.6198 36.5758 17.8386 36.3058 17.8386H11.4888C11.2188 17.8386 11 17.6198 11 17.3498ZM16.0074 18.7602H14.0458C12.44 18.7602 11.1335 20.0666 11.1335 21.6725V24.5112C11.1335 24.7812 11.3523 25 11.6223 25H18.4308C18.7008 25 18.9196 24.7812 18.9196 24.5112V21.6725C18.9196 20.0666 17.6132 18.7602 16.0074 18.7602ZM17.9421 24.0225H12.111V21.6725C12.111 20.6057 12.9789 19.7377 14.0458 19.7377H16.0074C17.0742 19.7377 17.9421 20.6057 17.9421 21.6725V24.0225ZM33.7492 18.7602H31.7876C30.1818 18.7602 28.8753 20.0666 28.8753 21.6725V24.5112C28.8753 24.7812 29.0942 25 29.3641 25H36.1727C36.4426 25 36.6614 24.7812 36.6614 24.5112V21.6725C36.6614 20.0666 35.355 18.7602 33.7492 18.7602ZM35.6839 24.0225H29.8528V21.6725C29.8528 20.6057 30.7208 19.7377 31.7876 19.7377H33.7492C34.816 19.7377 35.6839 20.6057 35.6839 21.6725V24.0225Z" fill="#A0A0A0"/>
</svg>
