<svg width="18" height="18" viewBox="0 0 18 18" fill="none" xmlns="http://www.w3.org/2000/svg">
<g clip-path="url(#clip0_104_6015)">
<path d="M9 0C7.21997 0 5.47991 0.527841 3.99987 1.51677C2.51983 2.50571 1.36628 3.91131 0.685088 5.55585C0.00389957 7.20038 -0.17433 9.00998 0.172937 10.7558C0.520204 12.5016 1.37737 14.1053 2.63604 15.364C3.89472 16.6226 5.49836 17.4798 7.24419 17.8271C8.99002 18.1743 10.7996 17.9961 12.4442 17.3149C14.0887 16.6337 15.4943 15.4802 16.4832 14.0001C17.4722 12.5201 18 10.78 18 9C18 6.61305 17.0518 4.32387 15.364 2.63604C13.6761 0.948212 11.387 0 9 0V0ZM9 16.5C7.51664 16.5 6.0666 16.0601 4.83323 15.236C3.59986 14.4119 2.63856 13.2406 2.07091 11.8701C1.50325 10.4997 1.35473 8.99168 1.64411 7.53682C1.9335 6.08197 2.64781 4.74559 3.6967 3.6967C4.7456 2.64781 6.08197 1.9335 7.53683 1.64411C8.99168 1.35472 10.4997 1.50325 11.8701 2.0709C13.2406 2.63856 14.4119 3.59985 15.236 4.83322C16.0601 6.06659 16.5 7.51664 16.5 9C16.5 10.9891 15.7098 12.8968 14.3033 14.3033C12.8968 15.7098 10.9891 16.5 9 16.5Z" fill="#46C00D"/>
<g clip-path="url(#clip1_104_6015)">
<path d="M7.40595 12.2486C7.15047 12.2487 6.90546 12.1471 6.72497 11.9663L4.66615 9.90826C4.44462 9.68666 4.44462 9.32744 4.66615 9.10584C4.88775 8.88431 5.24696 8.88431 5.46857 9.10584L7.40595 11.0432L12.5314 5.91773C12.753 5.6962 13.1123 5.6962 13.3339 5.91773C13.5554 6.13934 13.5554 6.49855 13.3339 6.72015L8.08692 11.9663C7.90643 12.1471 7.66142 12.2487 7.40595 12.2486Z" fill="#46C00D"/>
</g>
</g>
<defs>
<clipPath id="clip0_104_6015">
<rect width="18" height="18" fill="white"/>
</clipPath>
<clipPath id="clip1_104_6015">
<rect width="9" height="9" fill="white" transform="translate(4.5 4.5)"/>
</clipPath>
</defs>
</svg>
